<svg width="64" height="64" viewBox="0 0 64 64" fill="none" xmlns="http://www.w3.org/2000/svg">
  <path d="M52.9721 48.3723L61.5054 22.3699C62.4178 19.2129 62.0559 15.8239 60.4973 12.9308C58.9388 10.0376 56.3079 7.87095 53.1696 6.89602L38.9533 2.53062C36.5014 1.79378 33.8827 1.82502 31.4491 2.62014C29.0155 3.41526 26.8835 4.93617 25.3396 6.97853H29.5025C34.1426 6.98382 38.5911 8.82943 41.8721 12.1105C45.1532 15.3915 46.9988 19.84 47.0041 24.4801V49.4824C47.0065 51.8514 46.5259 54.196 45.5914 56.373C47.3506 55.691 48.9303 54.6154 50.2097 53.2286C51.489 51.8418 52.4339 50.1806 52.9721 48.3723Z" fill="currentColor" />
  <path d="M42.0036 49.4824V24.4801C41.9997 21.1658 40.6813 17.9884 38.3377 15.6449C35.9942 13.3013 32.8168 11.9829 29.5025 11.979H14.5011C11.1868 11.9829 8.00944 13.3013 5.66588 15.6449C3.32232 17.9884 2.00397 21.1658 2 24.4801V49.4824C2.00397 52.7967 3.32232 55.9741 5.66588 58.3176C8.00944 60.6612 11.1868 61.9795 14.5011 61.9835H29.5025C32.8168 61.9795 35.9942 60.6612 38.3377 58.3176C40.6813 55.9741 41.9997 52.7967 42.0036 49.4824Z" fill="currentColor" />
</svg>