<svg width="64" height="64" viewBox="0 0 64 64" fill="none" xmlns="http://www.w3.org/2000/svg">
  <path d="M57.0732 16.0799V6.92681C57.0732 5.57006 55.9745 4.46893 54.6153 4.46893C53.2561 4.46893 52.1575 5.57006 52.1575 6.92681V12.7421L39.3691 4.11254C35.1932 1.29582 29.7957 1.29582 25.6198 4.11254L8.41469 15.7235C5.02529 18.0118 3 21.8191 3 25.9114V48.7106C3 55.487 8.51301 61 15.2894 61H20.2051C21.5643 61 22.663 59.8989 22.663 58.5421V36.4213C22.663 35.067 23.7641 33.9634 25.1209 33.9634H39.8681C41.2248 33.9634 42.326 35.067 42.326 36.4213V58.5421C42.326 59.8989 43.4246 61 44.7838 61H49.6996C56.4759 61 61.9889 55.487 61.9889 48.7106V25.9114C61.9889 22.0255 60.1603 18.3952 57.0732 16.0799Z" fill="currentColor" />
</svg>