<svg width="64" height="64" viewBox="0 0 64 64" fill="none" xmlns="http://www.w3.org/2000/svg">
  <path d="M4.28537 48C6.49112 51.8283 11.3827 53.1435 15.211 50.9378C15.2136 50.9363 15.2161 50.9347 15.2187 50.9333L16.4054 50.2479C18.6454 52.1644 21.2201 53.6506 24 54.6319V56C24 60.4183 27.5817 64 32 64C36.4182 64 40 60.4183 40 56V54.632C42.7803 53.6491 45.3551 52.1611 47.5946 50.2426L48.7866 50.9306C52.6157 53.1398 57.5109 51.8265 59.72 47.9972C61.9291 44.1681 60.6159 39.273 56.7866 37.0639L55.6026 36.3812C56.1356 33.4811 56.1356 30.5081 55.6026 27.6079L56.7866 26.9252C60.6157 24.7161 61.9291 19.8211 59.72 15.9919C57.5109 12.1628 52.6159 10.8494 48.7866 13.0585L47.6 13.7439C45.3577 11.8298 42.7812 10.3463 40 9.368V8C40 3.58175 36.4182 0 32 0C27.5817 0 24 3.58175 24 8V9.368C21.2197 10.3509 18.6449 11.8389 16.4054 13.7574L15.2134 13.0667C11.3841 10.8575 6.48912 12.1709 4.28 16C2.07087 19.8291 3.38412 24.7242 7.21337 26.9334L8.39737 27.616C7.86437 30.5161 7.86437 33.4891 8.39737 36.3894L7.21337 37.072C3.39475 39.287 2.08575 44.1725 4.28537 48ZM32 21.3334C37.891 21.3334 42.6666 26.109 42.6666 32C42.6666 37.891 37.891 42.6666 32 42.6666C26.109 42.6666 21.3334 37.891 21.3334 32C21.3334 26.109 26.109 21.3334 32 21.3334Z" fill="currentColor" />
</svg>